<svg xmlns="http://www.w3.org/2000/svg" className="h-5 w-5" viewBox="0 0 24 24" fill="none"
    stroke="currentColor" strokeWidth="1.5" strokeLinecap="round" strokeLinejoin="round"> {/* Entity
    1 */} <rect x="2" y="4" width="8" height="6" rx="1" />
                    <line x1="6" y1="7" x2="6" y2="7"
        strokeWidth="2" /> {/* Entity 2 */} <rect x="14" y="4" width="8" height="6" rx="1" />
                    <line
        x1="18" y1="7" x2="18" y2="7" strokeWidth="2" /> {/* Entity 3 */} <rect x="8" y="14"
        width="8" height="6" rx="1" />
                    <line x1="12" y1="17" x2="12" y2="17" strokeWidth="2" /> {/*
    Relationship lines */} <line x1="10" y1="7" x2="14" y2="7" />
                    <line x1="6" y1="10" x2="12"
        y2="14" />
                    <line x1="18" y1="10" x2="12" y2="14" /> {/* Relationship diamonds */} <path
        d="M10 7 L12 6 L14 7 L12 8 Z" />
                    <path d="M6 10 L8 9 L12 14 L10 15 Z" />
                    <path
        d="M18 10 L16 9 L12 14 L14 15 Z" />
</svg>